<svg width="11" height="11" viewBox="0 0 11 11" fill="none" xmlns="http://www.w3.org/2000/svg">
<path d="M9.66667 1.58333H8.41667V1.16667C8.41667 1.05616 8.37277 0.950179 8.29463 0.872039C8.21649 0.793899 8.11051 0.75 8 0.75C7.88949 0.75 7.78351 0.793899 7.70537 0.872039C7.62723 0.950179 7.58333 1.05616 7.58333 1.16667V1.58333H3.41667V1.16667C3.41667 1.05616 3.37277 0.950179 3.29463 0.872039C3.21649 0.793899 3.11051 0.75 3 0.75C2.88949 0.75 2.78351 0.793899 2.70537 0.872039C2.62723 0.950179 2.58333 1.05616 2.58333 1.16667V1.58333H1.33333C1.11232 1.58333 0.900358 1.67113 0.744078 1.82741C0.587797 1.98369 0.5 2.19565 0.5 2.41667V9.41667C0.5 9.63768 0.587797 9.84964 0.744078 10.0059C0.900358 10.1622 1.11232 10.25 1.33333 10.25H9.66667C9.88768 10.25 10.0996 10.1622 10.2559 10.0059C10.4122 9.84964 10.5 9.63768 10.5 9.41667V2.41667C10.5 2.19565 10.4122 1.98369 10.2559 1.82741C10.0996 1.67113 9.88768 1.58333 9.66667 1.58333ZM2.58333 2.41667V2.83333C2.58333 2.94384 2.62723 3.04982 2.70537 3.12796C2.78351 3.2061 2.88949 3.25 3 3.25C3.11051 3.25 3.21649 3.2061 3.29463 3.12796C3.37277 3.04982 3.41667 2.94384 3.41667 2.83333V2.41667H7.58333V2.83333C7.58333 2.94384 7.62723 3.04982 7.70537 3.12796C7.78351 3.2061 7.88949 3.25 8 3.25C8.11051 3.25 8.21649 3.2061 8.29463 3.12796C8.37277 3.04982 8.41667 2.94384 8.41667 2.83333V2.41667H9.66667V4.08333H1.33333V2.41667H2.58333ZM9.66667 9.41667H1.33333V4.91667H9.66667V9.41667Z" fill="white"/>
</svg>
