<svg width="16" height="12" viewBox="0 0 16 12" fill="none" xmlns="http://www.w3.org/2000/svg">
<path d="M15.3438 6C15.3438 6.12432 15.2944 6.24355 15.2065 6.33146C15.1185 6.41936 14.9993 6.46875 14.875 6.46875H1.125C1.00068 6.46875 0.881451 6.41936 0.793544 6.33146C0.705636 6.24355 0.65625 6.12432 0.65625 6C0.65625 5.87568 0.705636 5.75645 0.793544 5.66854C0.881451 5.58064 1.00068 5.53125 1.125 5.53125H14.875C14.9993 5.53125 15.1185 5.58064 15.2065 5.66854C15.2944 5.75645 15.3438 5.87568 15.3438 6ZM1.125 1.46875H14.875C14.9993 1.46875 15.1185 1.41936 15.2065 1.33146C15.2944 1.24355 15.3438 1.12432 15.3438 1C15.3438 0.87568 15.2944 0.756451 15.2065 0.668544C15.1185 0.580636 14.9993 0.53125 14.875 0.53125H1.125C1.00068 0.53125 0.881451 0.580636 0.793544 0.668544C0.705636 0.756451 0.65625 0.87568 0.65625 1C0.65625 1.12432 0.705636 1.24355 0.793544 1.33146C0.881451 1.41936 1.00068 1.46875 1.125 1.46875ZM14.875 10.5312H1.125C1.00068 10.5312 0.881451 10.5806 0.793544 10.6685C0.705636 10.7565 0.65625 10.8757 0.65625 11C0.65625 11.1243 0.705636 11.2435 0.793544 11.3315C0.881451 11.4194 1.00068 11.4688 1.125 11.4688H14.875C14.9993 11.4688 15.1185 11.4194 15.2065 11.3315C15.2944 11.2435 15.3438 11.1243 15.3438 11C15.3438 10.8757 15.2944 10.7565 15.2065 10.6685C15.1185 10.5806 14.9993 10.5312 14.875 10.5312Z" fill="#6A5F59"/>
</svg>
