<svg width="71" height="15" viewBox="0 0 71 15" fill="none" xmlns="http://www.w3.org/2000/svg">
<path d="M70.4919 0.0882568V0.5747L62.0455 13.5096H70.6025V14.4383H60.5641V13.9297L69.0105 0.972697H61.1169V0.0882568H70.4919Z" fill="#453730"/>
<path d="M53.8284 0.994808H48.964V0.0882568H59.6878V0.994808H54.8234V14.4383H53.8284V0.994808Z" fill="#453730"/>
<path d="M39.5118 14.4385V0.154777C40.7795 0.0515921 41.8556 0 42.74 0C44.0962 0 45.2165 0.353776 46.1009 1.06133C46.9854 1.75414 47.4276 2.74913 47.4276 4.04631C47.4276 4.91601 47.177 5.71938 46.6758 6.45641C46.1746 7.19345 45.6071 7.79044 44.9733 8.24741C46.7274 10.5764 47.8108 11.9694 48.2236 12.4264C49.0638 13.2961 49.9777 13.7899 50.9653 13.9078L50.9432 14.5933C50.1178 14.5785 49.4471 14.4606 48.9311 14.2395C48.4152 14.0036 47.8993 13.613 47.3834 13.0676C46.8822 12.5222 45.7693 11.0555 44.0446 8.66751C42.8506 8.66751 41.6787 8.63066 40.5289 8.55696V14.4385H39.5118ZM43.4918 7.8273C44.0667 7.8273 44.6858 7.44404 45.3491 6.67752C46.0125 5.91101 46.3441 5.0192 46.3441 4.00209C46.3441 2.98499 45.9977 2.2111 45.3049 1.68044C44.6121 1.14977 43.7129 0.88444 42.6074 0.88444C42.0178 0.88444 41.3249 0.913921 40.5289 0.972884V7.71674C41.5903 7.79044 42.5779 7.8273 43.4918 7.8273Z" fill="#453730"/>
<path d="M29.184 14.4383V0.0882568H35.8836V0.972697H30.2011V6.19089H35.3308V7.05322H30.2011V13.5096H36.1047V14.4383H29.184Z" fill="#453730"/>
<path d="M17.3617 9.46351L15.3053 14.4385H14.2661L20.2803 0H20.8773L26.9357 14.4385H25.8081L23.7296 9.46351H17.3617ZM20.5235 1.63621C20.3024 2.29954 20.1034 2.85232 19.9265 3.29454L17.7154 8.60118H23.3758L21.1869 3.31665C20.8478 2.49117 20.6267 1.93103 20.5235 1.63621Z" fill="#453730"/>
<path d="M10.9892 14.4383V7.18589H1.01711V14.4383H0V0.0882568H1.01711V6.27934H10.9892V0.0882568H12.0063V14.4383H10.9892Z" fill="#453730"/>
</svg>
