<svg width="16" height="17" viewBox="0 0 16 17" fill="none" xmlns="http://www.w3.org/2000/svg">
<path d="M14.25 1.65625H12.2188V0.875C12.2188 0.75068 12.1694 0.631451 12.0815 0.543544C11.9935 0.455636 11.8743 0.40625 11.75 0.40625C11.6257 0.40625 11.5065 0.455636 11.4185 0.543544C11.3306 0.631451 11.2812 0.75068 11.2812 0.875V1.65625H4.71875V0.875C4.71875 0.75068 4.66936 0.631451 4.58146 0.543544C4.49355 0.455636 4.37432 0.40625 4.25 0.40625C4.12568 0.40625 4.00645 0.455636 3.91854 0.543544C3.83064 0.631451 3.78125 0.75068 3.78125 0.875V1.65625H1.75C1.45992 1.65625 1.18172 1.77148 0.976602 1.9766C0.771484 2.18172 0.65625 2.45992 0.65625 2.75V15.25C0.65625 15.5401 0.771484 15.8183 0.976602 16.0234C1.18172 16.2285 1.45992 16.3438 1.75 16.3438H14.25C14.5401 16.3438 14.8183 16.2285 15.0234 16.0234C15.2285 15.8183 15.3438 15.5401 15.3438 15.25V2.75C15.3438 2.45992 15.2285 2.18172 15.0234 1.9766C14.8183 1.77148 14.5401 1.65625 14.25 1.65625ZM1.75 2.59375H3.78125V3.375C3.78125 3.49932 3.83064 3.61855 3.91854 3.70646C4.00645 3.79436 4.12568 3.84375 4.25 3.84375C4.37432 3.84375 4.49355 3.79436 4.58146 3.70646C4.66936 3.61855 4.71875 3.49932 4.71875 3.375V2.59375H11.2812V3.375C11.2812 3.49932 11.3306 3.61855 11.4185 3.70646C11.5065 3.79436 11.6257 3.84375 11.75 3.84375C11.8743 3.84375 11.9935 3.79436 12.0815 3.70646C12.1694 3.61855 12.2188 3.49932 12.2188 3.375V2.59375H14.25C14.2914 2.59375 14.3312 2.61021 14.3605 2.63951C14.3898 2.66882 14.4062 2.70856 14.4062 2.75V5.40625H1.59375V2.75C1.59375 2.70856 1.61021 2.66882 1.63951 2.63951C1.66882 2.61021 1.70856 2.59375 1.75 2.59375ZM14.25 15.4062H1.75C1.70856 15.4062 1.66882 15.3898 1.63951 15.3605C1.61021 15.3312 1.59375 15.2914 1.59375 15.25V6.34375H14.4062V15.25C14.4062 15.2914 14.3898 15.3312 14.3605 15.3605C14.3312 15.3898 14.2914 15.4062 14.25 15.4062ZM11.1438 8.66875C11.2315 8.75664 11.2808 8.87578 11.2808 9C11.2808 9.12422 11.2315 9.24336 11.1438 9.33125L7.39375 13.0813C7.30586 13.169 7.18672 13.2183 7.0625 13.2183C6.93828 13.2183 6.81914 13.169 6.73125 13.0813L4.85625 11.2063C4.77345 11.1174 4.72837 10.9999 4.73052 10.8784C4.73266 10.757 4.78185 10.6411 4.86774 10.5552C4.95362 10.4694 5.06949 10.4202 5.19092 10.418C5.31236 10.4159 5.42989 10.4609 5.51875 10.5437L7.0625 12.0867L10.4812 8.66875C10.5691 8.58097 10.6883 8.53166 10.8125 8.53166C10.9367 8.53166 11.0559 8.58097 11.1438 8.66875Z" fill="#1C1613"/>
</svg>
