<svg width="155" height="33" viewBox="0 0 155 33" fill="none" xmlns="http://www.w3.org/2000/svg">
<path d="M153.989 0.8479V1.9039L135.653 29.9839H154.229V31.9999H132.437V30.8959L150.773 2.7679H133.637V0.8479H153.989Z" fill="white"/>
<path d="M117.816 2.8159H107.256V0.8479H130.536V2.8159H119.976V31.9999H117.816V2.8159Z" fill="white"/>
<path d="M86.7354 32V0.992006C89.4874 0.768005 91.8233 0.656006 93.7433 0.656006C96.6873 0.656006 99.1194 1.42401 101.039 2.96001C102.959 4.46401 103.919 6.62401 103.919 9.44001C103.919 11.328 103.375 13.072 102.287 14.672C101.199 16.272 99.9673 17.568 98.5913 18.56C102.399 23.616 104.751 26.64 105.647 27.632C107.471 29.52 109.455 30.592 111.599 30.848L111.551 32.336C109.759 32.304 108.303 32.048 107.183 31.568C106.063 31.056 104.943 30.208 103.823 29.024C102.735 27.84 100.319 24.656 96.5753 19.472C93.9833 19.472 91.4394 19.392 88.9434 19.232V32H86.7354ZM95.3754 17.648C96.6234 17.648 97.9673 16.816 99.4073 15.152C100.847 13.488 101.567 11.552 101.567 9.34401C101.567 7.13601 100.815 5.45601 99.3113 4.30401C97.8073 3.15201 95.8554 2.57601 93.4554 2.57601C92.1754 2.57601 90.6714 2.64001 88.9434 2.76801V17.408C91.2474 17.568 93.3914 17.648 95.3754 17.648Z" fill="white"/>
<path d="M64.3159 31.9999V0.8479H78.8599V2.7679H66.5239V14.0959H77.6599V15.9679H66.5239V29.9839H79.3399V31.9999H64.3159Z" fill="white"/>
<path d="M38.6513 21.2L34.1873 32H31.9313L44.9873 0.656006H46.2833L59.4353 32H56.9873L52.4753 21.2H38.6513ZM45.5153 4.208C45.0353 5.648 44.6033 6.84801 44.2193 7.80801L39.4193 19.328H51.7073L46.9553 7.85601C46.2193 6.06401 45.7393 4.84801 45.5153 4.208Z" fill="white"/>
<path d="M24.8175 31.9999V16.2559H3.16955V31.9999H0.961548V0.8479H3.16955V14.2879H24.8175V0.8479H27.0255V31.9999H24.8175Z" fill="white"/>
</svg>
