<svg width="375" height="126" viewBox="0 0 375 126" fill="none" xmlns="http://www.w3.org/2000/svg">
<path d="M421.649 0.756958V4.92943L349.2 115.879H422.597V123.845H336.493V119.483L408.942 8.34326H341.234V0.756958H421.649Z" fill="#DAD7D6"/>
<path d="M278.713 8.53291H236.989V0.756958H328.973V8.53291H287.248V123.845H278.713V8.53291Z" fill="#DAD7D6"/>
<path d="M155.913 123.846V1.3276C166.787 0.442532 176.017 0 183.603 0C195.235 0 204.844 3.03452 212.431 9.10356C220.017 15.0462 223.81 23.5807 223.81 34.7073C223.81 42.1672 221.661 49.0581 217.362 55.38C213.063 61.7019 208.195 66.8226 202.758 70.7422C217.804 90.7195 227.098 102.668 230.638 106.587C237.845 114.047 245.684 118.283 254.155 119.295L253.966 125.174C246.885 125.047 241.132 124.036 236.707 122.139C232.282 120.116 227.856 116.766 223.431 112.088C219.132 107.409 209.586 94.8287 194.793 74.3457C184.551 74.3457 174.499 74.0296 164.637 73.3974V123.846H155.913ZM190.051 67.1387C194.982 67.1387 200.293 63.8513 205.982 57.2765C211.672 50.7018 214.517 43.0522 214.517 34.328C214.517 25.6038 211.546 18.9657 205.603 14.414C199.66 9.86219 191.948 7.5863 182.465 7.5863C177.407 7.5863 171.465 7.83917 164.637 8.34492V66.1904C173.741 66.8226 182.212 67.1387 190.051 67.1387Z" fill="#DAD7D6"/>
<path d="M67.3232 123.845V0.756958H124.789V8.34326H76.0475V53.1024H120.048V60.499H76.0475V115.879H126.686V123.845H67.3232Z" fill="#DAD7D6"/>
<path d="M-34.0754 81.1734L-51.7135 123.846H-60.6274L-9.04064 0H-3.91988L48.0463 123.846H38.3737L20.5459 81.1734H-34.0754ZM-6.95441 14.0346C-8.85098 19.7244 -10.5579 24.4658 -12.0751 28.259L-31.0409 73.7767H17.5114L-1.26468 28.4486C-4.17276 21.3681 -6.06934 16.5634 -6.95441 14.0346Z" fill="#DAD7D6"/>
</svg>
