<svg width="14" height="14" viewBox="0 0 14 14" fill="none" xmlns="http://www.w3.org/2000/svg">
<path d="M5.125 0.28125H1.375C1.08492 0.28125 0.80672 0.396484 0.601602 0.601602C0.396484 0.80672 0.28125 1.08492 0.28125 1.375V5.125C0.28125 5.26863 0.309541 5.41086 0.364507 5.54356C0.419473 5.67626 0.500038 5.79683 0.601602 5.8984C0.703166 5.99996 0.82374 6.08053 0.95644 6.13549C1.08914 6.19046 1.23137 6.21875 1.375 6.21875H5.125C5.26863 6.21875 5.41086 6.19046 5.54356 6.13549C5.67626 6.08053 5.79683 5.99996 5.8984 5.8984C5.99996 5.79683 6.08053 5.67626 6.13549 5.54356C6.19046 5.41086 6.21875 5.26863 6.21875 5.125V1.375C6.21875 1.23137 6.19046 1.08914 6.13549 0.95644C6.08053 0.82374 5.99996 0.703166 5.8984 0.601602C5.79683 0.500038 5.67626 0.419473 5.54356 0.364507C5.41086 0.309541 5.26863 0.28125 5.125 0.28125ZM5.28125 5.125C5.28125 5.16644 5.26479 5.20618 5.23549 5.23549C5.20618 5.26479 5.16644 5.28125 5.125 5.28125H1.375C1.33356 5.28125 1.29382 5.26479 1.26451 5.23549C1.23521 5.20618 1.21875 5.16644 1.21875 5.125V1.375C1.21875 1.33356 1.23521 1.29382 1.26451 1.26451C1.29382 1.23521 1.33356 1.21875 1.375 1.21875H5.125C5.16644 1.21875 5.20618 1.23521 5.23549 1.26451C5.26479 1.29382 5.28125 1.33356 5.28125 1.375V5.125ZM12.625 0.28125H8.875C8.58492 0.28125 8.30672 0.396484 8.1016 0.601602C7.89648 0.80672 7.78125 1.08492 7.78125 1.375V5.125C7.78125 5.26863 7.80954 5.41086 7.86451 5.54356C7.91947 5.67626 8.00004 5.79683 8.1016 5.8984C8.20317 5.99996 8.32374 6.08053 8.45644 6.13549C8.58914 6.19046 8.73137 6.21875 8.875 6.21875H12.625C12.7686 6.21875 12.9109 6.19046 13.0436 6.13549C13.1763 6.08053 13.2968 5.99996 13.3984 5.8984C13.5 5.79683 13.5805 5.67626 13.6355 5.54356C13.6905 5.41086 13.7188 5.26863 13.7188 5.125V1.375C13.7188 1.08492 13.6035 0.80672 13.3984 0.601602C13.1933 0.396484 12.9151 0.28125 12.625 0.28125ZM12.7812 5.125C12.7812 5.16644 12.7648 5.20618 12.7355 5.23549C12.7062 5.26479 12.6664 5.28125 12.625 5.28125H8.875C8.83356 5.28125 8.79382 5.26479 8.76451 5.23549C8.73521 5.20618 8.71875 5.16644 8.71875 5.125V1.375C8.71875 1.33356 8.73521 1.29382 8.76451 1.26451C8.79382 1.23521 8.83356 1.21875 8.875 1.21875H12.625C12.6664 1.21875 12.7062 1.23521 12.7355 1.26451C12.7648 1.29382 12.7812 1.33356 12.7812 1.375V5.125ZM5.125 7.78125H1.375C1.08492 7.78125 0.80672 7.89648 0.601602 8.1016C0.396484 8.30672 0.28125 8.58492 0.28125 8.875V12.625C0.28125 12.9151 0.396484 13.1933 0.601602 13.3984C0.80672 13.6035 1.08492 13.7188 1.375 13.7188H5.125C5.26863 13.7188 5.41086 13.6905 5.54356 13.6355C5.67626 13.5805 5.79683 13.5 5.8984 13.3984C5.99996 13.2968 6.08053 13.1763 6.13549 13.0436C6.19046 12.9109 6.21875 12.7686 6.21875 12.625V8.875C6.21875 8.73137 6.19046 8.58914 6.13549 8.45644C6.08053 8.32374 5.99996 8.20317 5.8984 8.1016C5.79683 8.00004 5.67626 7.91947 5.54356 7.86451C5.41086 7.80954 5.26863 7.78125 5.125 7.78125ZM5.28125 12.625C5.28125 12.6664 5.26479 12.7062 5.23549 12.7355C5.20618 12.7648 5.16644 12.7812 5.125 12.7812H1.375C1.33356 12.7812 1.29382 12.7648 1.26451 12.7355C1.23521 12.7062 1.21875 12.6664 1.21875 12.625V8.875C1.21875 8.83356 1.23521 8.79382 1.26451 8.76451C1.29382 8.73521 1.33356 8.71875 1.375 8.71875H5.125C5.16644 8.71875 5.20618 8.73521 5.23549 8.76451C5.26479 8.79382 5.28125 8.83356 5.28125 8.875V12.625ZM12.625 7.78125H8.875C8.58492 7.78125 8.30672 7.89648 8.1016 8.1016C7.89648 8.30672 7.78125 8.58492 7.78125 8.875V12.625C7.78125 12.9151 7.89648 13.1933 8.1016 13.3984C8.30672 13.6035 8.58492 13.7188 8.875 13.7188H12.625C12.9151 13.7188 13.1933 13.6035 13.3984 13.3984C13.6035 13.1933 13.7188 12.9151 13.7188 12.625V8.875C13.7188 8.58492 13.6035 8.30672 13.3984 8.1016C13.1933 7.89648 12.9151 7.78125 12.625 7.78125ZM12.7812 12.625C12.7812 12.6664 12.7648 12.7062 12.7355 12.7355C12.7062 12.7648 12.6664 12.7812 12.625 12.7812H8.875C8.83356 12.7812 8.79382 12.7648 8.76451 12.7355C8.73521 12.7062 8.71875 12.6664 8.71875 12.625V8.875C8.71875 8.83356 8.73521 8.79382 8.76451 8.76451C8.79382 8.73521 8.83356 8.71875 8.875 8.71875H12.625C12.6664 8.71875 12.7062 8.73521 12.7355 8.76451C12.7648 8.79382 12.7812 8.83356 12.7812 8.875V12.625Z" fill="#6A5F59"/>
</svg>
