<svg width="20" height="20" viewBox="0 0 20 20" fill="none" xmlns="http://www.w3.org/2000/svg">
<g id="calendar-check-thin 1">
<path id="Vector" d="M16.25 2.8125H14.0625V1.875C14.0625 1.79212 14.0296 1.71263 13.971 1.65403C13.9124 1.59542 13.8329 1.5625 13.75 1.5625C13.6671 1.5625 13.5876 1.59542 13.529 1.65403C13.4704 1.71263 13.4375 1.79212 13.4375 1.875V2.8125H6.5625V1.875C6.5625 1.79212 6.52958 1.71263 6.47097 1.65403C6.41237 1.59542 6.33288 1.5625 6.25 1.5625C6.16712 1.5625 6.08763 1.59542 6.02903 1.65403C5.97042 1.71263 5.9375 1.79212 5.9375 1.875V2.8125H3.75C3.50136 2.8125 3.2629 2.91127 3.08709 3.08709C2.91127 3.2629 2.8125 3.50136 2.8125 3.75V16.25C2.8125 16.4986 2.91127 16.7371 3.08709 16.9129C3.2629 17.0887 3.50136 17.1875 3.75 17.1875H16.25C16.4986 17.1875 16.7371 17.0887 16.9129 16.9129C17.0887 16.7371 17.1875 16.4986 17.1875 16.25V3.75C17.1875 3.50136 17.0887 3.2629 16.9129 3.08709C16.7371 2.91127 16.4986 2.8125 16.25 2.8125ZM3.75 3.4375H5.9375V4.375C5.9375 4.45788 5.97042 4.53737 6.02903 4.59597C6.08763 4.65458 6.16712 4.6875 6.25 4.6875C6.33288 4.6875 6.41237 4.65458 6.47097 4.59597C6.52958 4.53737 6.5625 4.45788 6.5625 4.375V3.4375H13.4375V4.375C13.4375 4.45788 13.4704 4.53737 13.529 4.59597C13.5876 4.65458 13.6671 4.6875 13.75 4.6875C13.8329 4.6875 13.9124 4.65458 13.971 4.59597C14.0296 4.53737 14.0625 4.45788 14.0625 4.375V3.4375H16.25C16.3329 3.4375 16.4124 3.47042 16.471 3.52903C16.5296 3.58763 16.5625 3.66712 16.5625 3.75V6.5625H3.4375V3.75C3.4375 3.66712 3.47042 3.58763 3.52903 3.52903C3.58763 3.47042 3.66712 3.4375 3.75 3.4375ZM16.25 16.5625H3.75C3.66712 16.5625 3.58763 16.5296 3.52903 16.471C3.47042 16.4124 3.4375 16.3329 3.4375 16.25V7.1875H16.5625V16.25C16.5625 16.3329 16.5296 16.4124 16.471 16.471C16.4124 16.5296 16.3329 16.5625 16.25 16.5625ZM13.0336 9.77891C13.0626 9.80793 13.0857 9.84239 13.1014 9.88033C13.1172 9.91827 13.1252 9.95893 13.1252 10C13.1252 10.0411 13.1172 10.0817 13.1014 10.1197C13.0857 10.1576 13.0626 10.1921 13.0336 10.2211L9.28359 13.9711C9.25457 14.0001 9.22011 14.0232 9.18217 14.0389C9.14423 14.0547 9.10357 14.0627 9.0625 14.0627C9.02143 14.0627 8.98077 14.0547 8.94283 14.0389C8.90489 14.0232 8.87043 14.0001 8.84141 13.9711L6.96641 12.0961C6.90777 12.0375 6.87483 11.9579 6.87483 11.875C6.87483 11.7921 6.90777 11.7125 6.96641 11.6539C7.02504 11.5953 7.10457 11.5623 7.1875 11.5623C7.27043 11.5623 7.34996 11.5953 7.40859 11.6539L9.0625 13.3078L12.5914 9.77891C12.6204 9.74985 12.6549 9.7268 12.6928 9.71107C12.7308 9.69535 12.7714 9.68725 12.8125 9.68725C12.8536 9.68725 12.8942 9.69535 12.9322 9.71107C12.9701 9.7268 13.0046 9.74985 13.0336 9.77891Z" fill="#6A5F59"/>
</g>
</svg>
