<svg width="15" height="13" viewBox="0 0 15 13" fill="none" xmlns="http://www.w3.org/2000/svg">
<path d="M6.84375 6C6.84375 6.12432 6.79436 6.24355 6.70646 6.33146C6.61855 6.41936 6.49932 6.46875 6.375 6.46875H0.75C0.62568 6.46875 0.506451 6.41936 0.418544 6.33146C0.330636 6.24355 0.28125 6.12432 0.28125 6C0.28125 5.87568 0.330636 5.75645 0.418544 5.66854C0.506451 5.58064 0.62568 5.53125 0.75 5.53125H6.375C6.49932 5.53125 6.61855 5.58064 6.70646 5.66854C6.79436 5.75645 6.84375 5.87568 6.84375 6ZM0.75 1.46875H11.375C11.4993 1.46875 11.6185 1.41936 11.7065 1.33146C11.7944 1.24355 11.8438 1.12432 11.8438 1C11.8438 0.87568 11.7944 0.756451 11.7065 0.668544C11.6185 0.580636 11.4993 0.53125 11.375 0.53125H0.75C0.62568 0.53125 0.506451 0.580636 0.418544 0.668544C0.330636 0.756451 0.28125 0.87568 0.28125 1C0.28125 1.12432 0.330636 1.24355 0.418544 1.33146C0.506451 1.41936 0.62568 1.46875 0.75 1.46875ZM5.125 10.5312H0.75C0.62568 10.5312 0.506451 10.5806 0.418544 10.6685C0.330636 10.7565 0.28125 10.8757 0.28125 11C0.28125 11.1243 0.330636 11.2435 0.418544 11.3315C0.506451 11.4194 0.62568 11.4688 0.75 11.4688H5.125C5.24932 11.4688 5.36855 11.4194 5.45646 11.3315C5.54436 11.2435 5.59375 11.1243 5.59375 11C5.59375 10.8757 5.54436 10.7565 5.45646 10.6685C5.36855 10.5806 5.24932 10.5312 5.125 10.5312ZM14.8313 8.79375C14.7434 8.70597 14.6242 8.65666 14.5 8.65666C14.3758 8.65666 14.2566 8.70597 14.1687 8.79375L11.8438 11.118V4.75C11.8438 4.62568 11.7944 4.50645 11.7065 4.41854C11.6185 4.33064 11.4993 4.28125 11.375 4.28125C11.2507 4.28125 11.1315 4.33064 11.0435 4.41854C10.9556 4.50645 10.9062 4.62568 10.9062 4.75V11.118L8.58125 8.79375C8.49239 8.71095 8.37486 8.66587 8.25342 8.66802C8.13199 8.67016 8.01612 8.71935 7.93024 8.80524C7.84435 8.89112 7.79516 9.00699 7.79302 9.12842C7.79087 9.24986 7.83595 9.36739 7.91875 9.45625L11.0437 12.5813C11.1316 12.669 11.2508 12.7183 11.375 12.7183C11.4992 12.7183 11.6184 12.669 11.7063 12.5813L14.8313 9.45625C14.919 9.36836 14.9683 9.24922 14.9683 9.125C14.9683 9.00078 14.919 8.88164 14.8313 8.79375Z" fill="#1C1613"/>
</svg>
