<svg width="26" height="22" viewBox="0 0 26 22" fill="none" xmlns="http://www.w3.org/2000/svg">
<path d="M24 0.5H2C1.60218 0.5 1.22064 0.658035 0.93934 0.93934C0.658035 1.22064 0.5 1.60218 0.5 2V20C0.5 20.3978 0.658035 20.7794 0.93934 21.0607C1.22064 21.342 1.60218 21.5 2 21.5H24C24.3978 21.5 24.7794 21.342 25.0607 21.0607C25.342 20.7794 25.5 20.3978 25.5 20V2C25.5 1.60218 25.342 1.22064 25.0607 0.93934C24.7794 0.658035 24.3978 0.5 24 0.5ZM2 1.5H24C24.1326 1.5 24.2598 1.55268 24.3536 1.64645C24.4473 1.74021 24.5 1.86739 24.5 2V16.05L20.3888 11.9387C20.2494 11.7989 20.0838 11.688 19.9015 11.6122C19.7192 11.5365 19.5237 11.4976 19.3263 11.4976C19.1288 11.4976 18.9333 11.5365 18.751 11.6122C18.5687 11.688 18.4031 11.7989 18.2638 11.9387L15.41 14.7925L9.5575 8.93875C9.41814 8.79891 9.25255 8.68795 9.07023 8.61225C8.8879 8.53654 8.69242 8.49757 8.495 8.49757C8.29758 8.49757 8.1021 8.53654 7.91977 8.61225C7.73744 8.68795 7.57186 8.79891 7.4325 8.93875L1.5 14.875V2C1.5 1.86739 1.55268 1.74021 1.64645 1.64645C1.74021 1.55268 1.86739 1.5 2 1.5ZM1.5 20V16.2925L8.14625 9.64625C8.19269 9.59976 8.24783 9.56288 8.30853 9.53772C8.36923 9.51256 8.43429 9.49961 8.5 9.49961C8.56571 9.49961 8.63077 9.51256 8.69147 9.53772C8.75217 9.56288 8.80731 9.59976 8.85375 9.64625L19.7075 20.5H2C1.86739 20.5 1.74021 20.4473 1.64645 20.3536C1.55268 20.2598 1.5 20.1326 1.5 20ZM24 20.5H21.125L16.125 15.5L18.9788 12.6462C19.0252 12.5998 19.0803 12.5629 19.141 12.5377C19.2017 12.5126 19.2668 12.4996 19.3325 12.4996C19.3982 12.4996 19.4633 12.5126 19.524 12.5377C19.5847 12.5629 19.6398 12.5998 19.6863 12.6462L24.5 17.4638V20C24.5 20.1326 24.4473 20.2598 24.3536 20.3536C24.2598 20.4473 24.1326 20.5 24 20.5ZM15.5 7.5C15.5 7.30222 15.5586 7.10888 15.6685 6.94443C15.7784 6.77998 15.9346 6.65181 16.1173 6.57612C16.3 6.50043 16.5011 6.48063 16.6951 6.51921C16.8891 6.5578 17.0673 6.65304 17.2071 6.79289C17.347 6.93275 17.4422 7.11093 17.4808 7.30491C17.5194 7.49889 17.4996 7.69996 17.4239 7.88268C17.3482 8.06541 17.22 8.22159 17.0556 8.33147C16.8911 8.44135 16.6978 8.5 16.5 8.5C16.2348 8.5 15.9804 8.39464 15.7929 8.20711C15.6054 8.01957 15.5 7.76522 15.5 7.5Z" fill="white"/>
</svg>
