<svg width="28" height="28" viewBox="0 0 28 28" fill="none" xmlns="http://www.w3.org/2000/svg">
<g id="link-simple 1">
<path id="Vector" d="M18.1191 9.88089C18.2005 9.96216 18.265 10.0587 18.3091 10.1649C18.3531 10.2711 18.3758 10.385 18.3758 10.5C18.3758 10.6149 18.3531 10.7288 18.3091 10.835C18.265 10.9413 18.2005 11.0378 18.1191 11.119L11.1191 18.119C11.0378 18.2003 10.9413 18.2648 10.8351 18.3088C10.7289 18.3528 10.615 18.3754 10.5001 18.3754C10.3851 18.3754 10.2713 18.3528 10.165 18.3088C10.0588 18.2648 9.9623 18.2003 9.88101 18.119C9.79971 18.0377 9.73522 17.9412 9.69123 17.835C9.64723 17.7288 9.62458 17.6149 9.62458 17.5C9.62458 17.385 9.64723 17.2711 9.69123 17.1649C9.73522 17.0587 9.79971 16.9622 9.88101 16.8809L16.881 9.88089C16.9623 9.79954 17.0588 9.735 17.165 9.69096C17.2712 9.64693 17.3851 9.62427 17.5001 9.62427C17.6151 9.62427 17.7289 9.64693 17.8351 9.69096C17.9414 9.735 18.0379 9.79954 18.1191 9.88089ZM23.5813 4.4187C23.0126 3.84988 22.3373 3.39866 21.5942 3.09081C20.851 2.78296 20.0545 2.62451 19.2501 2.62451C18.4457 2.62451 17.6491 2.78296 16.906 3.09081C16.1628 3.39866 15.4876 3.84988 14.9188 4.4187L11.631 7.70542C11.4668 7.86961 11.3746 8.09229 11.3746 8.32449C11.3746 8.55668 11.4668 8.77936 11.631 8.94355C11.7952 9.10773 12.0179 9.19997 12.2501 9.19997C12.4823 9.19997 12.7049 9.10773 12.8691 8.94355L16.1569 5.6623C16.9804 4.85692 18.0883 4.40877 19.2401 4.41511C20.3919 4.42145 21.4948 4.88178 22.3093 5.69618C23.1239 6.51058 23.5844 7.61336 23.5909 8.76518C23.5975 9.917 23.1495 11.0249 22.3443 11.8485L19.0554 15.1364C18.8912 15.3004 18.7989 15.5229 18.7988 15.755C18.7987 15.9871 18.8908 16.2098 19.0548 16.3739C19.2189 16.5381 19.4414 16.6304 19.6735 16.6305C19.9056 16.6306 20.1282 16.5385 20.2924 16.3745L23.5813 13.0812C24.1501 12.5124 24.6014 11.8372 24.9092 11.094C25.2171 10.3509 25.3755 9.55435 25.3755 8.74995C25.3755 7.94555 25.2171 7.14903 24.9092 6.40587C24.6014 5.66271 24.1501 4.98747 23.5813 4.4187ZM15.131 19.0553L11.8432 22.3431C11.4386 22.7568 10.9559 23.0861 10.4232 23.312C9.89045 23.5378 9.31818 23.6558 8.73954 23.659C8.1609 23.6621 7.58737 23.5505 7.05216 23.3305C6.51696 23.1105 6.03071 22.7865 5.62158 22.3773C5.21245 21.9681 4.88855 21.4818 4.66866 20.9466C4.44876 20.4114 4.33723 19.8378 4.34052 19.2592C4.34381 18.6805 4.46185 18.1083 4.68782 17.5756C4.91379 17.0429 5.24319 16.5603 5.65694 16.1557L8.94366 12.869C9.10785 12.7048 9.20009 12.4821 9.20009 12.25C9.20009 12.0178 9.10785 11.7951 8.94366 11.6309C8.77948 11.4667 8.55679 11.3745 8.3246 11.3745C8.09241 11.3745 7.86972 11.4667 7.70554 11.6309L4.41882 14.9187C3.2701 16.0674 2.62476 17.6254 2.62476 19.25C2.62476 20.8745 3.2701 22.4325 4.41882 23.5812C5.56754 24.7299 7.12553 25.3753 8.75007 25.3753C10.3746 25.3753 11.9326 24.7299 13.0813 23.5812L16.3691 20.2923C16.5332 20.1281 16.6253 19.9055 16.6252 19.6734C16.6251 19.4413 16.5328 19.2188 16.3686 19.0547C16.2044 18.8907 15.9818 18.7986 15.7497 18.7987C15.5176 18.7988 15.295 18.8911 15.131 19.0553Z" fill="#453730"/>
</g>
</svg>
