<svg width="73" height="18" viewBox="0 0 73 18" fill="none" xmlns="http://www.w3.org/2000/svg">
<path d="M71.4919 2.08826V2.5747L63.0455 15.5096H71.6025V16.4383H61.5641V15.9297L70.0105 2.9727H62.1169V2.08826H71.4919Z" fill="#453730"/>
<path d="M54.8284 2.99481H49.964V2.08826H60.6878V2.99481H55.8234V16.4383H54.8284V2.99481Z" fill="#453730"/>
<path d="M40.5118 16.4385V2.15478C41.7795 2.05159 42.8556 2 43.74 2C45.0962 2 46.2165 2.35378 47.1009 3.06133C47.9854 3.75414 48.4276 4.74913 48.4276 6.04631C48.4276 6.91601 48.177 7.71938 47.6758 8.45641C47.1746 9.19345 46.6071 9.79044 45.9733 10.2474C47.7274 12.5764 48.8108 13.9694 49.2236 14.4264C50.0638 15.2961 50.9777 15.7899 51.9653 15.9078L51.9432 16.5933C51.1178 16.5785 50.4471 16.4606 49.9311 16.2395C49.4152 16.0036 48.8993 15.613 48.3834 15.0676C47.8822 14.5222 46.7693 13.0555 45.0446 10.6675C43.8506 10.6675 42.6787 10.6307 41.5289 10.557V16.4385H40.5118ZM44.4918 9.8273C45.0667 9.8273 45.6858 9.44404 46.3491 8.67752C47.0125 7.91101 47.3441 7.0192 47.3441 6.00209C47.3441 4.98499 46.9977 4.2111 46.3049 3.68044C45.6121 3.14977 44.7129 2.88444 43.6074 2.88444C43.0178 2.88444 42.3249 2.91392 41.5289 2.97288V9.71674C42.5903 9.79044 43.5779 9.8273 44.4918 9.8273Z" fill="#453730"/>
<path d="M30.184 16.4383V2.08826H36.8836V2.9727H31.2011V8.19089H36.3308V9.05322H31.2011V15.5096H37.1047V16.4383H30.184Z" fill="#453730"/>
<path d="M18.3617 11.4635L16.3053 16.4385H15.2661L21.2803 2H21.8773L27.9357 16.4385H26.8081L24.7296 11.4635H18.3617ZM21.5235 3.63621C21.3024 4.29954 21.1034 4.85232 20.9265 5.29454L18.7154 10.6012H24.3758L22.1869 5.31665C21.8478 4.49117 21.6267 3.93103 21.5235 3.63621Z" fill="#453730"/>
<path d="M11.9892 16.4383V9.18589H2.01711V16.4383H1V2.08826H2.01711V8.27934H11.9892V2.08826H13.0063V16.4383H11.9892Z" fill="#453730"/>
</svg>
