<svg width="14" height="14" viewBox="0 0 14 14" fill="none" xmlns="http://www.w3.org/2000/svg">
<path d="M7.625 10.25C7.625 10.3736 7.58835 10.4945 7.51967 10.5972C7.45099 10.7 7.35338 10.7801 7.23918 10.8274C7.12498 10.8747 6.99931 10.8871 6.87807 10.863C6.75683 10.8389 6.64547 10.7793 6.55806 10.6919C6.47065 10.6045 6.41113 10.4932 6.38701 10.3719C6.3629 10.2507 6.37527 10.125 6.42258 10.0108C6.46988 9.89662 6.54999 9.79901 6.65277 9.73033C6.75555 9.66166 6.87639 9.625 7 9.625C7.16576 9.625 7.32473 9.69085 7.44194 9.80806C7.55915 9.92527 7.625 10.0842 7.625 10.25ZM7 3.625C5.6875 3.625 4.625 4.57812 4.625 5.75V6C4.625 6.09946 4.66451 6.19484 4.73484 6.26516C4.80516 6.33549 4.90055 6.375 5 6.375C5.09946 6.375 5.19484 6.33549 5.26517 6.26516C5.33549 6.19484 5.375 6.09946 5.375 6V5.75C5.375 4.99187 6.10375 4.375 7 4.375C7.89625 4.375 8.625 4.99187 8.625 5.75C8.625 6.50812 7.89625 7.125 7 7.125C6.90055 7.125 6.80516 7.16451 6.73484 7.23483C6.66451 7.30516 6.625 7.40054 6.625 7.5V8C6.625 8.09946 6.66451 8.19484 6.73484 8.26516C6.80516 8.33549 6.90055 8.375 7 8.375C7.09946 8.375 7.19484 8.33549 7.26517 8.26516C7.33549 8.19484 7.375 8.09946 7.375 8V7.84875C8.50688 7.6875 9.375 6.8075 9.375 5.75C9.375 4.57812 8.3125 3.625 7 3.625ZM13.375 7C13.375 8.26086 13.0011 9.4934 12.3006 10.5418C11.6001 11.5901 10.6045 12.4072 9.43961 12.8897C8.27473 13.3722 6.99293 13.4985 5.7563 13.2525C4.51967 13.0065 3.38376 12.3994 2.4922 11.5078C1.60064 10.6162 0.993477 9.48033 0.747497 8.2437C0.501516 7.00707 0.627762 5.72527 1.11027 4.56039C1.59278 3.39551 2.40988 2.39988 3.45824 1.69938C4.50661 0.998887 5.73915 0.625 7 0.625C8.69015 0.626985 10.3105 1.29927 11.5056 2.49439C12.7007 3.6895 13.373 5.30985 13.375 7ZM12.625 7C12.625 5.88748 12.2951 4.79994 11.677 3.87492C11.0589 2.94989 10.1804 2.22892 9.1526 1.80318C8.12476 1.37743 6.99376 1.26604 5.90262 1.48308C4.81148 1.70012 3.8092 2.23585 3.02253 3.02252C2.23586 3.80919 1.70013 4.81147 1.48309 5.90262C1.26604 6.99376 1.37744 8.12476 1.80318 9.15259C2.22892 10.1804 2.94989 11.0589 3.87492 11.677C4.79995 12.2951 5.88748 12.625 7 12.625C8.49134 12.6233 9.92112 12.0302 10.9757 10.9756C12.0302 9.92111 12.6233 8.49133 12.625 7Z" fill="#8F8783"/>
</svg>
