<svg width="20" height="20" viewBox="0 0 16 17" fill="none" xmlns="http://www.w3.org/2000/svg">
<path d="M14.25 1.8125H12.0625V0.875C12.0625 0.79212 12.0296 0.712634 11.971 0.654029C11.9124 0.595424 11.8329 0.5625 11.75 0.5625C11.6671 0.5625 11.5876 0.595424 11.529 0.654029C11.4704 0.712634 11.4375 0.79212 11.4375 0.875V1.8125H4.5625V0.875C4.5625 0.79212 4.52958 0.712634 4.47097 0.654029C4.41237 0.595424 4.33288 0.5625 4.25 0.5625C4.16712 0.5625 4.08763 0.595424 4.02903 0.654029C3.97042 0.712634 3.9375 0.79212 3.9375 0.875V1.8125H1.75C1.50136 1.8125 1.2629 1.91127 1.08709 2.08709C0.911272 2.2629 0.8125 2.50136 0.8125 2.75V15.25C0.8125 15.4986 0.911272 15.7371 1.08709 15.9129C1.2629 16.0887 1.50136 16.1875 1.75 16.1875H14.25C14.4986 16.1875 14.7371 16.0887 14.9129 15.9129C15.0887 15.7371 15.1875 15.4986 15.1875 15.25V2.75C15.1875 2.50136 15.0887 2.2629 14.9129 2.08709C14.7371 1.91127 14.4986 1.8125 14.25 1.8125ZM1.75 2.4375H3.9375V3.375C3.9375 3.45788 3.97042 3.53737 4.02903 3.59597C4.08763 3.65458 4.16712 3.6875 4.25 3.6875C4.33288 3.6875 4.41237 3.65458 4.47097 3.59597C4.52958 3.53737 4.5625 3.45788 4.5625 3.375V2.4375H11.4375V3.375C11.4375 3.45788 11.4704 3.53737 11.529 3.59597C11.5876 3.65458 11.6671 3.6875 11.75 3.6875C11.8329 3.6875 11.9124 3.65458 11.971 3.59597C12.0296 3.53737 12.0625 3.45788 12.0625 3.375V2.4375H14.25C14.3329 2.4375 14.4124 2.47042 14.471 2.52903C14.5296 2.58763 14.5625 2.66712 14.5625 2.75V5.5625H1.4375V2.75C1.4375 2.66712 1.47042 2.58763 1.52903 2.52903C1.58763 2.47042 1.66712 2.4375 1.75 2.4375ZM14.25 15.5625H1.75C1.66712 15.5625 1.58763 15.5296 1.52903 15.471C1.47042 15.4124 1.4375 15.3329 1.4375 15.25V6.1875H14.5625V15.25C14.5625 15.3329 14.5296 15.4124 14.471 15.471C14.4124 15.5296 14.3329 15.5625 14.25 15.5625ZM11.0336 8.77891C11.0626 8.80793 11.0857 8.84239 11.1014 8.88033C11.1172 8.91827 11.1252 8.95893 11.1252 9C11.1252 9.04107 11.1172 9.08173 11.1014 9.11967C11.0857 9.15761 11.0626 9.19207 11.0336 9.22109L7.28359 12.9711C7.25457 13.0001 7.22011 13.0232 7.18217 13.0389C7.14423 13.0547 7.10357 13.0627 7.0625 13.0627C7.02143 13.0627 6.98077 13.0547 6.94283 13.0389C6.90489 13.0232 6.87043 13.0001 6.84141 12.9711L4.96641 11.0961C4.90777 11.0375 4.87483 10.9579 4.87483 10.875C4.87483 10.7921 4.90777 10.7125 4.96641 10.6539C5.02504 10.5953 5.10457 10.5623 5.1875 10.5623C5.27043 10.5623 5.34996 10.5953 5.40859 10.6539L7.0625 12.3078L10.5914 8.77891C10.6204 8.74985 10.6549 8.7268 10.6928 8.71107C10.7308 8.69535 10.7714 8.68725 10.8125 8.68725C10.8536 8.68725 10.8942 8.69535 10.9322 8.71107C10.9701 8.7268 11.0046 8.74985 11.0336 8.77891Z" fill="#1C1613"/>
</svg>
